HIERARCHY
ROOT Hips
{
	OFFSET 0.00000 0.00000 0.00000
	CHANNELS 6 Xposition Yposition Zposition Zrotation Yrotation Xrotation 
	JOINT LHipJoint
	{
		OFFSET 0 0 0
		CHANNELS 3 Zrotation Yrotation Xrotation
		JOINT LeftHip
		{
			OFFSET 1.09156 -1.61406 0.76500
			CHANNELS 3 Zrotation Yrotation Xrotation
			JOINT LeftKnee
			{
				OFFSET 2.33750 -6.42225 0.00000
				CHANNELS 3 Zrotation Yrotation Xrotation
				JOINT LeftAnkle
				{
					OFFSET 2.49247 -6.84800 0.00000
					CHANNELS 3 Zrotation Yrotation Xrotation
					JOINT LeftToe
					{
						OFFSET 0.15312 -0.42069 1.45461
						CHANNELS 3 Zrotation Yrotation Xrotation
						End Site
						{
							OFFSET 0.00000 -0.00000 0.77046
						}
					}
				}
			}
		}
	}
	JOINT RHipJoint
	{
		OFFSET 0 0 0
		CHANNELS 3 Zrotation Yrotation Xrotation
		JOINT RightHip
		{
			OFFSET -0.99883 -1.61406 0.76500
			CHANNELS 3 Zrotation Yrotation Xrotation
			JOINT RightKnee
			{
				OFFSET -2.36877 -6.50815 0.00000
				CHANNELS 3 Zrotation Yrotation Xrotation
				JOINT RightAnkle
				{
					OFFSET -2.53452 -6.96353 0.00000
					CHANNELS 3 Zrotation Yrotation Xrotation
					JOINT RightToe
					{
						OFFSET -0.13156 -0.36145 1.63237
						CHANNELS 3 Zrotation Yrotation Xrotation
						End Site
						{
							OFFSET -0.00000 -0.00000 0.84979
						}
					}
				}
			}
		}
	}
	JOINT lowerback
	{
		OFFSET 0 0 0
		CHANNELS 3 Zrotation Yrotation Xrotation
		JOINT Chest
		{
			OFFSET -0.02431 1.98242 -0.13616
			CHANNELS 3 Zrotation Yrotation Xrotation
			JOINT Chest2
			{
				OFFSET 0.03629 1.98974 -0.02954
				CHANNELS 3 Zrotation Yrotation Xrotation
				JOINT lowerneck
				{
					OFFSET 0 0 0
					CHANNELS 3 Zrotation Yrotation Xrotation
					JOINT Neck
					{
						OFFSET 0.09349 1.40783 0.22333
						CHANNELS 3 Zrotation Yrotation Xrotation
						JOINT Head
						{
							OFFSET -0.04273 1.44500 -0.06495
							CHANNELS 3 Zrotation Yrotation Xrotation
							End Site
							{
								OFFSET -0.02251 1.44600 -0.04544
							}
						}
					}
				}
				JOINT LeftCollar
				{
					OFFSET 0 0 0
					CHANNELS 3 Zrotation Yrotation Xrotation
					JOINT LeftShoulder
					{
						OFFSET 3.49137 0.85126 -0.29740
CHANNELS 3 Zrotation Xrotation Yrotation
						JOINT LeftElbow
						{
OFFSET 0 -5.060350 0.000000
CHANNELS 3 Zrotation Xrotation Yrotation
							JOINT LeftWrist
							{
OFFSET 0 -3.147800 0.000000
CHANNELS 3 Zrotation Xrotation Yrotation
								JOINT lhand
								{
									OFFSET 0 0 0
CHANNELS 3 Zrotation Xrotation Yrotation
									JOINT LFingers
									{
OFFSET 0 -0.606750 0.000000
CHANNELS 3 Zrotation Xrotation Yrotation
										End Site
										{
OFFSET 0 -0.489180 0.000000
										}
									}
								}
								JOINT LThumb
								{
OFFSET 0 0.000000 0.000000
CHANNELS 3 Zrotation Xrotation Yrotation
									End Site
									{
OFFSET 0 -0.496640 0.496640
									}
								}
							}
						}
					}
				}
				JOINT RightCollar
				{
					OFFSET 0 0 0
					CHANNELS 3 Zrotation Yrotation Xrotation
					JOINT RightShoulder
					{
						OFFSET -3.28101 0.69707 0.00747
CHANNELS 3 Zrotation Xrotation Yrotation
						JOINT RightElbow
						{
OFFSET 0 -5.122730 -0.000000
CHANNELS 3 Zrotation Xrotation Yrotation
							JOINT RightWrist
							{
OFFSET 0 -3.422000 0.000000
CHANNELS 3 Zrotation Xrotation Yrotation
								JOINT rhand
								{
									OFFSET 0 0 0
CHANNELS 3 Zrotation Xrotation Yrotation
									JOINT RFingers
									{
OFFSET 0 -0.704600 0.000000
CHANNELS 3 Zrotation Xrotation Yrotation
										End Site
										{
OFFSET 0 -0.568070 0.000000
										}
									}
								}
								JOINT RThumb
								{
OFFSET 0 0.000000 0.000000
CHANNELS 3 Zrotation Xrotation Yrotation
									End Site
									{
OFFSET 0 -0.576740 0.576740
									}
								}
							}
						}
					}
				}
			}
		}
	}
}
MOTION
Frames: 12
Frame Time: 0.008333333333333333
-7.886800 27.387300 -0.280400 -160.869000 88.694600 -155.958000 0.000000 0.000000 0.000000 -17.235100 -3.486200 -9.632300 1.749400 8.323400 23.700600 1.545000 -5.520600 -22.354000 0.079100 -1.814500 -4.993400 0.000000 0.000000 0.000000 17.852700 6.083600 -6.885200 -1.687000 -8.181300 23.266000 -0.758100 -7.662100 -20.962300 -0.124300 2.272800 -6.260200 -2.117400 -0.479700 -5.215900 0.452500 -0.518700 0.603500 1.612800 -0.303800 3.571800 2.253100 0.228300 -9.564700 -1.248300 0.404600 18.586900 -0.732600 0.334600 7.277000 -0.000000 -0.000000 0.000000 3.358400 -8.267800 -7.202100 8.651500 -14.603300 1.110600 18.498100 22.707700 -40.923700 0.000000 0.000000 0.000000 -7.125000 0.000000 0.000000 -27.061200 70.738000 17.015600 -0.000000 -0.000000 0.000000 -0.825700 -0.100100 18.059000 -11.232500 -18.643800 -1.849600 -26.368200 -13.766700 -41.384500 0.000000 0.000000 0.000000 7.125000 0.000000 -0.000000 4.999600 -14.395000 6.105500
-7.896028 27.391167 -0.276487 -166.056922 88.916530 -161.083940 0.000000 0.000000 0.000000 -17.403327 -3.281534 -9.753777 1.731990 8.283905 23.579731 1.528003 -5.690098 -22.210937 0.066487 -1.663054 -4.575417 0.000000 0.000000 0.000000 17.630345 6.299462 -6.975512 -1.699807 -8.210588 23.355649 -0.798754 -7.304946 -21.067817 -0.074195 1.755879 -4.831571 -2.249988 -0.467788 -5.307181 0.361034 -0.488645 0.611405 1.594718 -0.291303 3.630535 2.275880 0.271958 -9.751843 -1.308805 0.480211 18.959397 -0.749619 0.371553 7.433545 0.000000 0.000000 0.000000 3.628975 -8.970595 -8.150766 8.551988 -14.443599 1.085623 18.649552 23.308373 -41.124048 0.000000 0.000000 0.000000 -7.125000 0.000000 0.000000 -27.228892 70.957113 17.254990 0.000000 0.000000 0.000000 -0.734423 -0.114622 17.466171 -10.972907 -18.246717 -1.767465 -28.094984 -13.969741 -41.388657 0.000000 0.000000 0.000000 7.125000 0.000000 0.000000 4.147899 -14.888510 5.085838
-7.902520 27.388803 -0.273107 -147.723633 88.926947 -142.814666 0.000000 0.000000 0.000000 -17.070704 -3.582876 -9.696964 1.755020 8.335994 23.739319 1.554161 -5.322232 -22.442284 0.044914 -1.368449 -3.763144 0.000000 0.000000 0.000000 17.982809 6.152682 -6.960135 -1.678116 -8.160769 23.203584 -0.757597 -7.497264 -20.826144 -0.151440 2.507792 -6.911194 -1.890084 -0.431855 -5.236969 0.385820 -0.466634 0.601983 1.420454 -0.272754 3.577055 2.329809 0.214431 -9.841794 -1.322354 0.397652 19.147148 -0.771050 0.337074 7.509620 0.000000 0.000000 0.000000 3.923612 -9.222166 -10.206915 8.699116 -14.679608 1.122661 18.774043 22.397724 -41.023260 0.000000 0.000000 0.000000 -7.125000 0.000000 0.000000 -26.905366 70.914058 17.015761 0.000000 0.000000 0.000000 -0.702360 0.357417 18.269445 -11.321974 -18.779983 -1.878273 -28.359452 -15.068753 -40.749049 0.000000 0.000000 0.000000 7.125000 0.000000 0.000000 3.855622 -14.328795 4.698982
-7.907870 27.385615 -0.272980 -140.546260 88.893563 -135.862250 0.000000 0.000000 0.000000 -16.948568 -3.536103 -9.477571 1.767495 8.364015 23.825361 1.563384 -5.292379 -22.514555 0.047835 -1.411513 -3.881785 0.000000 0.000000 0.000000 18.135939 6.042650 -6.699351 -1.666275 -8.133310 23.119614 -0.771465 -7.314837 -20.816153 -0.143511 2.441447 -6.727275 -1.748901 -0.404831 -5.080089 0.434813 -0.444246 0.665330 1.394173 -0.259786 3.552563 2.090316 0.261917 -9.885816 -1.241436 0.484263 19.061168 -0.696430 0.366530 7.490337 0.000000 0.000000 0.000000 3.960896 -9.651805 -11.335806 8.711278 -14.699145 1.125751 18.819268 22.215594 -40.973043 0.000000 0.000000 0.000000 -7.125000 0.000000 0.000000 -26.764433 70.886875 16.906729 0.000000 0.000000 0.000000 -0.699706 0.447778 17.921903 -11.183034 -18.568311 -1.833776 -28.402041 -15.016984 -41.181009 0.000000 0.000000 0.000000 7.125000 0.000000 0.000000 3.943572 -14.771804 4.828595
-7.918534 27.389266 -0.268053 -136.559943 88.786271 -131.740022 0.000000 0.000000 0.000000 -16.762793 -3.530590 -9.742829 1.773640 8.377693 23.867367 1.544739 -5.353797 -22.368355 0.055628 -1.521976 -4.186424 0.000000 0.000000 0.000000 18.282566 6.043490 -6.915930 -1.661787 -8.123021 23.088275 -0.754857 -7.366071 -20.696458 -0.160094 2.577889 -7.105552 -1.708331 -0.402842 -5.327582 0.487492 -0.441478 0.722752 1.424644 -0.260352 3.751453 2.226229 0.097847 -10.112417 -1.311873 0.241336 19.176786 -0.765329 0.253068 7.564650 0.000000 0.000000 0.000000 3.804938 -10.181325 -11.917518 8.834106 -14.895686 1.157147 18.905499 22.079339 -40.973096 0.000000 0.000000 0.000000 -7.125000 0.000000 0.000000 -26.661546 70.915855 16.855551 0.000000 0.000000 0.000000 -0.751372 0.175017 17.465469 -10.979033 -18.256009 -1.769407 -27.756300 -14.165739 -41.784277 0.000000 0.000000 0.000000 7.125000 0.000000 0.000000 4.415003 -15.183141 5.430799
-7.930467 27.385075 -0.259583 -145.011317 88.832907 -140.388818 0.000000 0.000000 0.000000 -16.923382 -3.372816 -9.563512 1.767316 8.363515 23.823869 1.537991 -5.370582 -22.315903 0.060883 -1.592177 -4.379880 0.000000 0.000000 0.000000 18.175252 6.043873 -6.774456 -1.677126 -8.158344 23.196007 -0.738818 -7.532450 -20.673280 -0.190407 2.810134 -7.750563 -2.089717 -0.511775 -5.112782 0.572575 -0.569176 0.750803 1.717259 -0.332234 3.669428 2.237827 0.107766 -9.911579 -1.565213 0.308041 19.073432 -0.843493 0.262924 7.495849 0.000000 0.000000 0.000000 3.615338 -10.304840 -12.711530 8.893017 -14.989656 1.172302 19.166413 21.488050 -40.553288 0.000000 0.000000 0.000000 -7.125000 0.000000 0.000000 -25.638892 70.645865 16.031658 0.000000 0.000000 0.000000 -0.900479 -0.074639 16.623910 -10.703635 -17.832536 -1.683992 -27.641694 -13.410534 -41.769851 0.000000 0.000000 0.000000 7.125000 0.000000 0.000000 4.467547 -15.135825 5.493270
-7.940690 27.386930 -0.260350 -146.320581 88.933059 -141.715379 0.000000 0.000000 0.000000 -17.018614 -3.796588 -9.396802 1.757390 8.341350 23.755629 1.546080 -5.089346 -22.406149 0.042779 -1.334586 -3.669992 0.000000 0.000000 0.000000 18.060925 5.821653 -6.924402 -1.684490 -8.175509 23.248408 -0.748271 -7.404509 -20.663307 -0.195952 2.850077 -7.861758 -2.184827 -0.496820 -5.050134 0.532836 -0.542993 0.788323 1.732060 -0.321227 3.672346 2.346468 0.139863 -9.894448 -1.536746 0.312166 18.734595 -0.851232 0.268988 7.382357 0.000000 0.000000 0.000000 3.502592 -10.571387 -13.643157 9.040077 -15.224301 1.210672 19.397851 21.224270 -41.009368 0.000000 0.000000 0.000000 -7.125000 0.000000 0.000000 -26.133084 71.112064 16.617848 0.000000 0.000000 0.000000 -0.963084 -0.029249 16.501946 -10.715889 -17.851364 -1.687823 -27.309752 -13.821566 -41.400167 0.000000 0.000000 0.000000 7.125000 0.000000 0.000000 4.538271 -14.674159 5.555005
-7.947829 27.393010 -0.257535 -133.076182 89.164576 -128.332506 0.000000 0.000000 0.000000 -17.018589 -3.641909 -9.569489 1.751691 8.328577 23.716584 1.536780 -4.953035 -22.351582 0.032186 -1.154727 -3.174653 0.000000 0.000000 0.000000 17.990870 5.952007 -7.108676 -1.679169 -8.163043 23.210452 -0.797229 -6.821089 -20.685027 -0.124918 2.269980 -6.252777 -2.282612 -0.542099 -5.188441 0.559976 -0.594986 0.765708 1.809903 -0.349829 3.730813 2.448427 0.301469 -9.753097 -1.622444 0.526767 18.458771 -0.875901 0.367395 7.272127 0.000000 0.000000 0.000000 3.353334 -10.720551 -13.403677 9.081286 -15.289881 1.221472 19.050320 21.146791 -41.074546 0.000000 0.000000 0.000000 -7.125000 0.000000 0.000000 -26.664297 71.050093 16.934637 0.000000 0.000000 0.000000 -1.045086 0.132694 16.893479 -10.820360 -18.012311 -1.719973 -27.238573 -14.120571 -40.997942 0.000000 0.000000 0.000000 7.125000 0.000000 0.000000 4.474207 -14.254647 5.452635
-7.953127 27.390420 -0.256347 -133.219706 89.172430 -128.485436 0.000000 0.000000 0.000000 -17.029591 -3.729020 -9.523746 1.745880 8.315487 23.676461 1.531585 -4.867170 -22.322082 0.037101 -1.243569 -3.419304 0.000000 0.000000 0.000000 17.980872 5.732459 -7.253485 -1.687647 -8.182715 23.270371 -0.789527 -6.837265 -20.622859 -0.206701 2.927405 -8.076613 -2.315338 -0.564062 -5.309384 0.553141 -0.618695 0.808641 1.818303 -0.364114 3.845107 2.402312 0.353903 -9.726017 -1.534764 0.579942 18.207866 -0.834579 0.393360 7.186718 0.000000 0.000000 0.000000 3.345786 -10.684902 -15.011568 9.226863 -15.521300 1.260171 19.166299 20.157301 -41.565627 0.000000 0.000000 0.000000 -7.125000 0.000000 0.000000 -27.401618 71.501686 17.691153 0.000000 0.000000 0.000000 -0.987994 0.223876 16.290331 -10.848170 -18.055086 -1.728592 -26.080389 -12.843873 -41.241456 0.000000 0.000000 0.000000 7.125000 0.000000 0.000000 5.107872 -14.173877 6.224583
-7.954162 27.388295 -0.251931 -144.468912 89.045707 -139.845372 0.000000 0.000000 0.000000 -17.011475 -3.378248 -9.585529 1.744076 8.311241 23.663414 1.501925 -5.363094 -22.043444 0.041115 -1.309125 -3.599646 0.000000 0.000000 0.000000 17.978050 5.635968 -7.124867 -1.693530 -8.196254 23.311817 -0.800842 -6.917018 -20.791511 -0.183183 2.756149 -7.600518 -2.429549 -0.754816 -5.284686 0.575899 -0.867062 0.809555 1.884616 -0.490302 3.846538 2.296069 0.440270 -9.748697 -1.330939 0.682509 18.347004 -0.741533 0.455180 7.237518 0.000000 0.000000 0.000000 3.190833 -10.489966 -15.317806 9.282038 -15.608824 1.274945 18.950045 19.525851 -40.328107 0.000000 0.000000 0.000000 -7.125000 0.000000 0.000000 -25.526860 70.381371 15.811096 0.000000 0.000000 0.000000 -1.018197 0.508182 16.482517 -10.995433 -18.281223 -1.774478 -26.981332 -13.268459 -40.233478 0.000000 0.000000 0.000000 7.125000 0.000000 0.000000 4.418703 -13.420275 5.337727
-7.955417 27.384499 -0.242848 -148.989159 88.850397 -144.507679 0.000000 0.000000 0.000000 -16.889533 -3.334656 -9.506556 1.754435 8.334604 23.735227 1.495261 -5.704241 -21.962332 0.036286 -1.228088 -3.376687 0.000000 0.000000 0.000000 18.139922 5.738958 -6.859095 -1.687432 -8.182130 23.268608 -0.748612 -7.504309 -20.745778 -0.216043 2.991248 -8.254438 -2.576367 -0.985527 -5.179406 0.689530 -1.172113 0.830744 2.059478 -0.646540 3.830649 2.307661 0.571664 -9.734962 -1.498775 0.892887 18.333352 -0.778961 0.541245 7.235281 0.000000 0.000000 0.000000 2.938705 -10.405297 -15.366227 9.151155 -15.400955 1.239926 19.424137 20.281484 -41.126414 0.000000 0.000000 0.000000 -7.125000 0.000000 0.000000 -26.305305 71.220059 16.793408 0.000000 0.000000 0.000000 -1.212860 0.472648 16.884977 -10.926528 -18.175591 -1.752948 -27.327905 -13.374684 -39.987240 0.000000 0.000000 0.000000 7.125000 0.000000 0.000000 4.185970 -13.271544 5.046907
-7.962747 27.382425 -0.238945 -150.426319 88.812850 -145.951870 0.000000 0.000000 0.000000 -16.856738 -3.199013 -9.630910 1.766210 8.361057 23.816253 1.488794 -5.847614 -21.901489 0.040384 -1.295378 -3.562046 0.000000 0.000000 0.000000 18.149050 5.738407 -6.821382 -1.680478 -8.166063 23.219735 -0.752870 -7.472048 -20.760904 -0.193317 2.829352 -7.804127 -2.524825 -0.985355 -5.168497 0.594497 -1.171946 0.841222 1.932285 -0.644379 3.832126 2.733851 0.439869 -9.661584 -1.705561 0.662512 17.947435 -0.937484 0.435634 7.094216 0.000000 0.000000 0.000000 2.958976 -10.451711 -15.724322 8.985073 -15.136643 1.196239 19.126005 20.152573 -40.769001 0.000000 0.000000 0.000000 -7.125000 0.000000 0.000000 -26.048297 70.816513 16.394883 0.000000 0.000000 0.000000 -1.041494 0.345138 16.456870 -10.763882 -17.925390 -1.702544 -27.109853 -13.083958 -40.893134 0.000000 0.000000 0.000000 7.125000 0.000000 0.000000 4.512861 -14.113696 5.492078
